ply
format ascii 1.0
element vertex 539
property float x
property float y
property float z
element face 1062
property list uchar int vertex_indices
end_header
-0.765794 -0.335293 -0.957787
-0.765794 0.773341 -0.957787
-0.723581 0.773332 -0.957787
-0.764354 -0.335293 -0.968713
-0.764354 -0.335293 -0.946862
-0.764354 0.773341 -0.968713
-0.764354 0.773341 -0.946862
-0.760137 -0.335293 -0.978894
-0.760137 -0.335293 -0.936681
-0.760137 0.773341 -0.978893
-0.760137 0.773341 -0.936681
-0.762720 -0.404027 -0.957787
-0.761385 -0.404027 -0.967918
-0.761385 -0.404027 -0.947657
-0.754013 -0.472760 -0.957787
-0.757476 -0.404027 -0.977357
-0.757476 -0.404027 -0.938217
-0.753429 -0.335293 -0.987636
-0.753429 -0.335293 -0.927939
-0.753429 0.773341 -0.987636
-0.753429 0.773341 -0.927938
-0.752975 -0.472760 -0.965664
-0.752975 -0.472760 -0.949911
-0.749935 -0.472760 -0.973003
-0.749935 -0.472760 -0.942572
-0.751257 -0.404027 -0.985463
-0.751257 -0.404027 -0.930111
-0.745099 -0.472760 -0.979306
-0.745099 -0.472760 -0.936269
-0.744686 -0.335293 -0.994344
-0.744686 -0.335293 -0.921230
-0.744686 0.773341 -0.994344
-0.744686 0.773341 -0.921230
-0.741604 -0.541495 -0.957787
-0.740990 -0.541495 -0.962452
-0.740990 -0.541495 -0.953123
-0.743150 -0.404027 -0.991684
-0.743150 -0.404027 -0.923891
-0.739190 -0.541495 -0.966799
-0.739190 -0.541495 -0.948776
-0.738796 -0.472760 -0.984142
-0.738796 -0.472760 -0.931433
-0.736326 -0.541495 -0.970532
-0.736326 -0.541495 -0.945043
-0.734505 -0.335293 -0.998562
-0.734505 -0.335293 -0.917013
-0.734505 0.773341 -0.998562
-0.734505 0.773341 -0.917013
-0.732592 -0.541495 -0.973397
-0.732592 -0.541495 -0.942178
-0.733712 -0.404027 -0.995594
-0.733712 -0.404027 -0.919981
-0.731457 -0.472760 -0.987182
-0.731457 -0.472760 -0.928393
-0.728244 -0.541495 -0.975197
-0.728244 -0.541495 -0.940378
-0.723581 -0.541495 -0.975811
-0.723581 -0.541495 -0.957787
-0.723581 -0.541495 -0.939764
-0.723581 -0.472760 -0.988219
-0.723581 -0.472760 -0.927356
-0.723581 -0.404027 -0.996927
-0.723581 -0.404027 -0.918648
-0.723581 -0.335293 -1.000000
-0.723581 -0.335293 -0.915575
-0.723581 0.773341 -1.000000
-0.723581 0.773341 -0.915575
-0.718916 -0.541495 -0.975197
-0.718916 -0.541495 -0.940378
-0.715705 -0.472760 -0.987182
-0.715705 -0.472760 -0.928393
-0.713451 -0.404027 -0.995594
-0.713451 -0.404027 -0.919981
-0.714568 -0.541495 -0.973397
-0.714568 -0.541495 -0.942178
-0.712655 -0.335293 -0.998562
-0.712655 -0.335293 -0.917013
-0.712655 0.773341 -0.998562
-0.712655 0.773341 -0.917013
-0.710836 -0.541495 -0.970532
-0.710836 -0.541495 -0.945043
-0.708364 -0.472760 -0.984142
-0.708364 -0.472760 -0.931433
-0.707971 -0.541495 -0.966799
-0.707971 -0.541495 -0.948776
-0.704011 -0.404027 -0.991684
-0.704011 -0.404027 -0.923891
-0.706171 -0.541495 -0.962452
-0.706171 -0.541495 -0.953123
-0.705556 -0.541495 -0.957787
-0.702474 -0.335293 -0.994344
-0.702474 -0.335293 -0.921230
-0.702474 0.773341 -0.994344
-0.702474 0.773341 -0.921230
-0.702061 -0.472760 -0.979306
-0.702061 -0.472760 -0.936269
-0.695905 -0.404027 -0.985463
-0.695905 -0.404027 -0.930111
-0.697225 -0.472760 -0.973003
-0.697225 -0.472760 -0.942572
-0.694185 -0.472760 -0.965664
-0.694185 -0.472760 -0.949911
-0.693733 -0.335293 -0.987636
-0.693733 -0.335293 -0.927939
-0.693733 0.773341 -0.987636
-0.693733 0.773341 -0.927938
-0.689684 -0.404027 -0.977357
-0.689684 -0.404027 -0.938217
-0.693150 -0.472760 -0.957787
-0.685775 -0.404027 -0.967918
-0.685775 -0.404027 -0.947657
-0.684440 -0.404027 -0.957787
-0.687023 -0.335293 -0.978894
-0.687023 -0.335293 -0.936681
-0.687023 0.773341 -0.978893
-0.687023 0.773341 -0.936681
-0.682806 -0.335293 -0.968713
-0.682806 -0.335293 -0.946862
-0.682806 0.773341 -0.968713
-0.682806 0.773341 -0.946862
-0.681368 -0.335293 -0.957787
-0.681368 0.773341 -0.957787
-0.833752 0.926539 -0.961677
-0.833752 0.927794 -0.971183
-0.833752 0.927794 -0.952171
-0.833752 0.931463 -0.980042
-0.833752 0.931463 -0.943313
-0.833752 0.937299 -0.987648
-0.833752 0.937299 -0.935706
-0.833752 0.944909 -0.993485
-0.833752 0.944909 -0.929869
-0.833752 0.953762 -0.997154
-0.833752 0.953762 -0.926200
-0.833752 0.963274 -0.998405
-0.833752 0.963274 -0.961677
-0.833752 0.963274 -0.924948
-0.833752 0.972777 -0.997154
-0.833752 0.972777 -0.926200
-0.833752 0.981636 -0.993485
-0.833752 0.981636 -0.929869
-0.833752 0.989240 -0.987648
-0.833752 0.989240 -0.935706
-0.833752 0.995076 -0.980042
-0.833752 0.995076 -0.943313
-0.833752 0.998749 -0.971183
-0.833752 0.998749 -0.952171
-0.833752 1.000000 -0.961677
-0.614893 0.926539 -0.961677
-0.614893 0.927794 -0.971183
-0.614893 0.927794 -0.952171
-0.614893 0.931463 -0.980042
-0.614893 0.931463 -0.943313
-0.614893 0.937299 -0.987648
-0.614893 0.937299 -0.935706
-0.614893 0.944909 -0.993485
-0.614893 0.944909 -0.929869
-0.614893 0.953762 -0.997154
-0.614893 0.953762 -0.926200
-0.614893 0.963274 -0.998405
-0.614893 0.963274 -0.961677
-0.614893 0.963274 -0.924948
-0.614893 0.972777 -0.997154
-0.614893 0.972777 -0.926200
-0.614893 0.981636 -0.993485
-0.614893 0.981636 -0.929869
-0.614893 0.989240 -0.987648
-0.614893 0.989240 -0.935706
-0.614893 0.995076 -0.980042
-0.614893 0.995076 -0.943313
-0.614893 0.998749 -0.971183
-0.614893 0.998749 -0.952171
-0.614893 1.000000 -0.961677
-1.000000 -0.502998 -0.908904
-0.999585 -0.530992 -0.909067
-0.995421 -0.502998 -0.897277
-0.995013 -0.530992 -0.897437
-0.993999 -0.577128 -0.911238
-0.989520 -0.577128 -0.899571
-0.982777 -0.640004 -0.915443
-0.978487 -0.640004 -0.903706
-0.971491 -0.699888 -0.919466
-0.967390 -0.699888 -0.907662
-0.954448 -0.768758 -0.925159
-0.950632 -0.768758 -0.913259
-0.934399 -0.828642 -0.931279
-0.930919 -0.828642 -0.919277
-0.911278 -0.466034 -0.937583
-0.908185 -0.466034 -0.925476
-0.899655 -0.897507 -0.940453
-0.896756 -0.897507 -0.928298
-0.865032 -0.949165 -0.947846
-0.862713 -0.949165 -0.935566
-0.852712 -0.454371 -0.950064
-0.850601 -0.454371 -0.937748
-0.821265 -0.985760 -0.954770
-0.819680 -0.985760 -0.942375
-0.790349 -0.451373 -0.958071
-0.789280 -0.451373 -0.945620
-0.761067 -1.000000 -0.960003
-0.760491 -1.000000 -0.947520
-0.722232 -0.452566 -0.948289
-0.722156 -0.452566 -0.960785
-0.678728 -0.997724 -0.946738
-0.677914 -0.997724 -0.959208
-0.669954 -0.450747 -0.946111
-0.668987 -0.450747 -0.958570
-0.629011 -0.985781 -0.941781
-0.627349 -0.985781 -0.954166
-0.605074 -0.452562 -0.938164
-0.603004 -0.452562 -0.950488
-0.577684 -0.941649 -0.933026
-0.575145 -0.941649 -0.945263
-0.544634 -0.464230 -0.925373
-0.543939 -0.885527 -0.925195
-0.541535 -0.464230 -0.937479
-0.540827 -0.885527 -0.937298
-0.518394 -0.822648 -0.918133
-0.514846 -0.822648 -0.930115
-0.501514 -0.762768 -0.912914
-0.497680 -0.762768 -0.924808
-0.490333 -0.699886 -0.909210
-0.486307 -0.699886 -0.921041
-0.482697 -0.638042 -0.906564
-0.478541 -0.638042 -0.918350
-0.474385 -0.578217 -0.903579
-0.470276 -0.537392 -0.902059
-0.470088 -0.578217 -0.915313
-0.469653 -0.505924 -0.901827
-0.465910 -0.537392 -0.913768
-0.465276 -0.505924 -0.913532
-0.846803 0.990415 -0.980084
-0.846803 0.990415 -0.941513
-0.845931 0.901640 -0.941513
-0.844725 0.893183 -0.980084
-0.839164 0.867600 -0.980084
-0.839164 0.867600 -0.941513
-0.834752 0.857078 -0.954370
-0.833362 0.854366 -0.941513
-0.829688 0.847888 -0.980084
-0.828145 0.845680 -0.941513
-0.826297 0.843457 -0.980084
-0.823175 0.982349 -0.980084
-0.823175 0.982349 -0.941513
-0.822674 0.912718 -0.941513
-0.822320 0.910215 -0.980084
-0.818714 0.891469 -0.980084
-0.818714 0.891469 -0.947941
-0.818589 0.891149 -0.941513
-0.814869 0.883777 -0.947941
-0.814558 0.883265 -0.980084
-0.814324 0.882947 -0.954370
-0.814145 0.882770 -0.941513
-0.795051 0.826248 -0.980084
-0.792219 0.825467 -0.941513
-0.781994 0.824044 -0.941513
-0.781796 0.824019 -0.980084
-0.774912 0.818958 -0.980084
-0.773644 0.817535 -0.941513
-0.770015 0.813347 -0.980084
-0.770015 0.813347 -0.973656
-0.770015 0.813347 -0.941513
-0.769229 0.808223 -0.980084
-0.769229 0.808223 -0.941513
-0.769187 0.811474 -0.967227
-0.769187 0.811474 -0.941513
-0.768571 0.760206 -0.980084
-0.768571 0.760206 -0.941513
-0.765166 0.860808 -0.980084
-0.765166 0.860808 -0.941513
-0.764825 0.734558 -0.980084
-0.764825 0.734558 -0.941513
-0.750608 0.840095 -0.980084
-0.750608 0.840095 -0.941513
-0.748667 0.834189 -0.941513
-0.748023 0.767105 -0.980084
-0.748023 0.767105 -0.941513
-0.746103 0.727897 -0.941513
-0.745920 0.773459 -0.980084
-0.745920 0.773459 -0.941513
-0.745389 0.813608 -0.980084
-0.745389 0.813608 -0.941513
-0.744573 0.761482 -0.980084
-0.744573 0.761482 -0.941513
-0.735691 0.727749 -0.980084
-0.706211 0.816471 -0.980084
-0.706211 0.816471 -0.941513
-0.706036 0.759895 -0.980084
-0.706036 0.759895 -0.941513
-0.704453 0.727290 -0.980084
-0.704453 0.727290 -0.941513
-0.704270 0.772855 -0.980084
-0.704270 0.772855 -0.941513
-0.702469 0.765968 -0.980084
-0.702469 0.765968 -0.941513
-0.697901 0.845688 -0.980084
-0.697901 0.845688 -0.941513
-0.688036 0.861469 -0.980084
-0.688036 0.861469 -0.941513
-0.685427 0.733874 -0.980084
-0.685427 0.733874 -0.941513
-0.682564 0.806488 -0.980084
-0.682564 0.806488 -0.941513
-0.682029 0.760598 -0.980084
-0.682029 0.760598 -0.941513
-0.679968 0.815391 -0.941513
-0.679960 0.815427 -0.980084
-0.677472 0.868238 -0.980084
-0.676722 0.821166 -0.980084
-0.676722 0.821166 -0.941513
-0.670295 0.824587 -0.980084
-0.666095 0.871093 -0.941513
-0.658867 0.826057 -0.980084
-0.655368 0.872192 -0.941513
-0.653670 0.872650 -0.980084
-0.638891 0.879933 -0.941513
-0.638851 0.879958 -0.980084
-0.631362 0.892810 -0.980084
-0.631362 0.892810 -0.941513
-0.629436 0.838046 -0.941513
-0.629301 0.897754 -0.980084
-0.629301 0.897754 -0.941513
-0.626015 0.902573 -0.980084
-0.626015 0.902573 -0.967227
-0.626015 0.902573 -0.954370
-0.626015 0.902573 -0.941513
-0.625653 0.903697 -0.973655
-0.625653 0.903697 -0.960798
-0.625653 0.903697 -0.954370
-0.625653 0.903697 -0.947941
-0.625611 0.903876 -0.954370
-0.625364 0.904215 -0.954370
-0.625088 0.842659 -0.980084
-0.624594 0.907676 -0.980084
-0.624594 0.907676 -0.967227
-0.624594 0.907676 -0.954370
-0.624594 0.907676 -0.941513
-0.624392 0.909789 -0.980084
-0.624392 0.909789 -0.973655
-0.624392 0.909789 -0.967227
-0.624392 0.909789 -0.960798
-0.624392 0.909789 -0.954370
-0.624392 0.908930 -0.980084
-0.624392 0.908930 -0.973655
-0.624392 0.908930 -0.967227
-0.624392 0.908930 -0.960798
-0.624392 0.908930 -0.954370
-0.624392 0.908930 -0.947941
-0.624392 0.908930 -0.941513
-0.623832 0.984141 -0.980084
-0.623832 0.984141 -0.941513
-0.623783 0.977688 -0.980084
-0.616575 0.905676 -0.980084
-0.616474 0.912063 -0.941513
-0.611672 0.866749 -0.941513
-0.607912 0.872998 -0.980084
-0.605817 0.878036 -0.960798
-0.604688 0.881638 -0.980084
-0.604688 0.881638 -0.941513
-0.600939 0.899173 -0.980084
-0.600939 0.899173 -0.941513
-0.599829 0.985168 -0.980084
-0.599829 0.985168 -0.941513
-0.792106 -0.659967 -0.934268
-0.791009 -0.659967 -0.922216
-0.727963 -0.597090 -0.948478
-0.727940 -0.597090 -0.936188
-0.615341 -0.719849 -0.941828
-0.617204 -0.719849 -0.929649
-0.822256 -0.784724 -0.927308
-0.820654 -0.784724 -0.915372
-0.791627 -0.870559 -0.936343
-0.675784 -0.575529 -0.949657
-0.790538 -0.870559 -0.924257
-0.676635 -0.575529 -0.937347
-0.831699 -0.741807 -0.924069
-0.829939 -0.741807 -0.912187
-0.809892 -0.827642 -0.931245
-0.808497 -0.827642 -0.919244
-0.671876 -0.908227 -0.941005
-0.672793 -0.908227 -0.928840
-0.578227 -0.679328 -0.938569
-0.580713 -0.679328 -0.926445
-0.568714 -0.638407 -0.935545
-0.571359 -0.638407 -0.923471
-0.700716 -0.941645 -0.946627
-0.701150 -0.941645 -0.934368
-0.625817 -0.534400 -0.946799
-0.544612 -0.596225 -0.932654
-0.627506 -0.534400 -0.934537
-0.547661 -0.596225 -0.920628
-0.719939 0.034252 -0.999520
-0.719939 0.403796 -0.916054
-0.716297 0.034252 -0.916534
-0.716297 0.403796 -0.999041
-0.689260 0.403796 -0.981808
-0.691496 0.034252 -0.984722
-0.691496 0.403796 -0.930853
-0.689260 0.034252 -0.933767
-0.747601 0.403796 -0.992108
-0.750515 0.034252 -0.989872
-0.750515 0.403796 -0.925702
-0.747601 0.034252 -0.923466
-0.764834 0.403796 -0.965071
-0.765314 0.034252 -0.961429
-0.765314 0.403796 -0.954145
-0.705867 0.403796 -0.995750
-0.709261 0.034252 -0.997156
-0.737899 0.403796 -0.997156
-0.741293 0.034252 -0.995750
-0.741293 0.403796 -0.919825
-0.709261 0.403796 -0.918419
-0.737899 0.034252 -0.918419
-0.705867 0.034252 -0.919825
-0.761542 0.034252 -0.940075
-0.764834 0.034252 -0.950504
-0.684212 0.034252 -0.943468
-0.681848 0.403796 -0.961429
-0.682327 0.034252 -0.965071
-0.682327 0.403796 -0.950504
-0.761542 0.403796 -0.975500
-0.762948 0.034252 -0.972106
-0.762948 0.403796 -0.943468
-0.684212 0.403796 -0.972106
-0.685618 0.034252 -0.975500
-0.685618 0.403796 -0.940075
-0.681848 0.034252 -0.954146
-0.755665 0.403796 -0.984722
-0.757901 0.034252 -0.981808
-0.757901 0.403796 -0.933767
-0.755665 0.034252 -0.930853
-0.696646 0.403796 -0.989872
-0.730864 0.034252 -0.999041
-0.730864 0.403796 -0.916534
-0.727222 0.034252 -0.916054
-0.727222 0.403796 -0.999520
-0.699560 0.034252 -0.992108
-0.699560 0.403796 -0.923466
-0.696646 0.034252 -0.925702
-0.583511 -0.513784 -0.942469
-0.585908 -0.513784 -0.930280
-0.943163 -0.557168 -0.925582
-0.939536 -0.557168 -0.913675
-0.517211 -0.556274 -0.928050
-0.520719 -0.556274 -0.916102
-0.779545 -0.965077 -0.953221
-0.778658 -0.965077 -0.940852
-0.734973 -0.960337 -0.951276
-0.734832 -0.960337 -0.938939
-0.538209 -0.498336 -0.934427
-0.541364 -0.498336 -0.922372
-0.919330 -0.499178 -0.932962
-0.916102 -0.499178 -0.920932
-0.875865 -0.584781 -0.933258
-0.771904 -0.728499 -0.929003
-0.728549 -0.666622 -0.940543
-0.728516 -0.666622 -0.928386
-0.873366 -0.584781 -0.921223
-0.771145 -0.728499 -0.917039
-0.686380 -0.644663 -0.947949
-0.790342 -0.500944 -0.952204
-0.707168 -0.645662 -0.945280
-0.789274 -0.500944 -0.939852
-0.707493 -0.645662 -0.933043
-0.687053 -0.644663 -0.935668
-0.640179 -0.664623 -0.943338
-0.557005 -0.809341 -0.936414
-0.648839 -0.685583 -0.945732
-0.650141 -0.685583 -0.933488
-0.559846 -0.809341 -0.924326
-0.641626 -0.664623 -0.931134
-0.778191 -0.790047 -0.928024
-0.916065 -0.751124 -0.923978
-0.772510 -0.813003 -0.929921
-0.777328 -0.790047 -0.916076
-0.912892 -0.751124 -0.912098
-0.771742 -0.813003 -0.917942
-0.755618 -0.861576 -0.934973
-0.875227 -0.865569 -0.936025
-0.744036 -0.884531 -0.938031
-0.729430 -0.493156 -0.956171
-0.660327 -0.616517 -0.945948
-0.637595 -0.616915 -0.946853
-0.755132 -0.861576 -0.922909
-0.872738 -0.865569 -0.923944
-0.743744 -0.884531 -0.925916
-0.661436 -0.616517 -0.933700
-0.729382 -0.493156 -0.943752
-0.639087 -0.616915 -0.934590
-0.785101 -0.755779 -0.925603
-0.928656 -0.693900 -0.919659
-0.781339 -0.775741 -0.926944
-0.780423 -0.775741 -0.915015
-0.925272 -0.693900 -0.907852
-0.784122 -0.755779 -0.913696
-0.761706 -0.847270 -0.933274
-0.899580 -0.808347 -0.929228
-0.768389 -0.827309 -0.931234
-0.761118 -0.847270 -0.921239
-0.896683 -0.808347 -0.917260
-0.767689 -0.827309 -0.919233
-0.704119 -0.897087 -0.939585
-0.595949 -0.911801 -0.941188
-0.715559 -0.915794 -0.942240
-0.704496 -0.897087 -0.927444
-0.715745 -0.915794 -0.930055
-0.598139 -0.911801 -0.929020
-0.605076 -0.651514 -0.943157
-0.530251 -0.754915 -0.931164
-0.599354 -0.631554 -0.941387
-0.607113 -0.651514 -0.930956
-0.533540 -0.754915 -0.919164
-0.601486 -0.631554 -0.929216
-0.596183 -0.617914 -0.940379
-0.592393 -0.596953 -0.939123
-0.517567 -0.700354 -0.927131
-0.598368 -0.617914 -0.928225
-0.521069 -0.700354 -0.915198
-0.594641 -0.596953 -0.926990
-0.742574 -0.941644 -0.947082
-0.634404 -0.956358 -0.948685
-0.725172 -0.926934 -0.944115
-0.765169 -0.751343 -0.927248
-0.903785 -0.559719 -0.932922
-0.840228 -0.566373 -0.939197
-0.687161 -0.737372 -0.937370
-0.791122 -0.593653 -0.941625
-0.848929 -0.676157 -0.926238
-0.883583 -0.628251 -0.927656
-0.701612 -0.757998 -0.933523
-0.707363 -0.668840 -0.942635
-0.764524 -0.751343 -0.915313
-0.687821 -0.737372 -0.925266
-0.900818 -0.559719 -0.920892
-0.838325 -0.566373 -0.927062
-0.790042 -0.593653 -0.929450
-0.707685 -0.668840 -0.930443
-0.846880 -0.676157 -0.914320
-0.880954 -0.628251 -0.915715
-0.702031 -0.757998 -0.921483
3 189 206 385
3 206 210 385
3 385 210 189
3 186 176 173
3 187 175 177
3 205 221 386
3 386 201 205
3 221 201 386
3 387 205 223
3 223 221 387
3 221 205 387
3 220 204 388
3 200 220 388
3 388 204 200
3 204 220 389
3 220 222 389
3 389 222 204
3 215 178 521
3 192 215 529
3 525 192 454
3 454 215 524
3 452 192 523
3 523 362 452
3 192 452 522
3 362 454 524
3 452 178 522
3 526 178 362
3 521 178 453
3 522 178 192
3 452 362 527
3 453 215 521
3 362 453 526
3 362 215 528
3 527 178 452
3 192 362 523
3 524 215 362
3 454 362 525
3 453 362 528
3 528 215 453
3 362 192 525
3 362 178 527
3 453 178 526
3 454 192 529
3 529 215 454
3 213 193 535
3 179 213 530
3 534 193 363
3 533 193 456
3 363 213 531
3 456 193 532
3 456 363 533
3 455 363 531
3 179 456 532
3 457 179 530
3 531 213 455
3 363 179 536
3 537 363 456
3 363 455 534
3 532 193 179
3 456 179 537
3 530 213 457
3 457 363 536
3 457 213 538
3 455 193 534
3 536 179 457
3 363 457 538
3 363 193 533
3 179 363 537
3 538 213 363
3 535 193 455
3 455 213 535
3 392 76 78
3 77 75 393
3 65 75 390
3 64 78 391
3 75 63 390
3 391 78 66
3 64 76 392
3 393 65 77
3 390 63 65
3 397 113 115
3 66 64 391
3 114 112 394
3 78 64 392
3 395 102 104
3 105 103 396
3 394 104 114
3 75 65 393
3 112 102 395
3 396 115 105
3 103 113 397
3 112 104 394
3 104 112 395
3 103 115 396
3 399 17 19
3 20 18 400
3 115 103 397
3 29 19 398
3 32 18 401
3 398 19 31
3 31 29 398
3 29 17 399
3 18 30 401
3 400 32 20
3 77 90 406
3 3 1 402
3 93 76 412
3 1 3 403
3 0 6 404
3 90 77 405
3 408 29 31
3 401 30 32
3 402 1 5
3 3 0 403
3 404 6 1
3 76 93 410
3 19 29 399
3 18 32 400
3 403 0 1
3 1 0 404
3 411 45 47
3 46 44 407
3 32 30 409
3 413 8 10
3 414 4 6
3 5 3 402
3 405 77 92
3 90 75 406
3 407 31 46
3 44 29 408
3 409 47 32
3 410 93 78
3 44 31 407
3 30 47 409
3 30 45 411
3 76 91 412
3 121 120 416
3 78 76 410
3 31 44 408
3 47 30 411
3 92 90 405
3 4 8 413
3 0 4 414
3 415 117 119
3 119 113 415
3 113 117 415
3 4 10 421
3 114 116 423
3 406 75 77
3 412 91 93
3 10 4 413
3 118 120 417
3 117 121 418
3 121 117 425
3 416 118 121
3 120 116 417
3 418 121 119
3 113 119 424
3 417 116 118
3 119 117 418
3 116 114 422
3 6 0 414
3 9 7 419
3 5 7 420
3 419 5 9
3 7 3 420
3 421 10 6
3 420 3 5
3 422 114 118
3 116 112 423
3 424 119 115
3 7 5 419
3 120 118 416
3 117 120 425
3 118 116 422
3 115 113 424
3 6 4 421
3 423 112 114
3 425 120 121
3 20 8 429
3 17 9 426
3 426 9 19
3 427 7 9
3 8 20 428
3 19 17 426
3 17 7 427
3 428 20 10
3 8 18 429
3 10 8 428
3 9 17 427
3 429 18 20
3 104 102 430
3 437 103 105
3 66 45 433
3 431 44 46
3 63 46 434
3 47 45 432
3 430 92 104
3 63 44 431
3 435 90 92
3 93 91 436
3 432 66 47
3 45 64 433
3 434 46 65
3 102 90 435
3 436 105 93
3 91 103 437
3 46 63 431
3 45 66 432
3 92 102 435
3 91 105 436
3 102 92 430
3 433 64 66
3 65 63 434
3 105 91 437
3 223 205 438
3 438 205 209
3 209 223 438
3 222 208 439
3 439 208 204
3 204 222 439
3 231 230 233
3 198 190 188
3 199 189 191
3 226 214 228
3 192 178 440
3 440 178 176
3 176 192 440
3 224 225 212
3 193 177 441
3 441 177 179
3 179 193 441
3 231 233 232
3 358 360 359
3 359 360 361
3 458 215 364
3 364 196 458
3 364 215 460
3 364 192 459
3 460 192 364
3 459 192 196
3 196 364 459
3 196 215 458
3 215 192 460
3 223 209 442
3 442 209 226
3 226 223 442
3 193 365 461
3 462 213 365
3 365 193 462
3 365 213 463
3 461 197 193
3 463 197 365
3 365 197 461
3 213 197 463
3 193 213 462
3 443 224 208
3 208 222 443
3 222 224 443
3 215 196 466
3 217 366 464
3 465 215 366
3 366 196 464
3 366 217 465
3 217 215 465
3 464 196 217
3 366 215 466
3 466 196 366
3 444 188 203
3 203 198 444
3 198 188 444
3 197 367 469
3 367 216 469
3 197 213 467
3 468 216 367
3 213 216 468
3 367 197 467
3 467 213 367
3 367 213 468
3 469 216 197
3 470 215 368
3 368 180 470
3 471 182 180
3 368 182 471
3 180 368 471
3 472 182 368
3 215 182 472
3 368 215 472
3 180 215 470
3 189 199 445
3 199 202 445
3 445 202 189
3 369 213 473
3 473 181 369
3 475 213 369
3 474 181 183
3 183 369 474
3 369 183 475
3 369 181 474
3 183 213 475
3 213 181 473
3 476 215 370
3 370 184 476
3 184 370 477
3 370 188 477
3 215 188 478
3 478 188 370
3 370 215 478
3 477 188 184
3 184 215 476
3 201 217 481
3 217 196 480
3 480 196 371
3 479 196 201
3 201 371 479
3 371 217 480
3 371 196 479
3 371 201 481
3 481 217 371
3 241 243 244
3 372 213 482
3 482 185 372
3 483 185 189
3 484 213 372
3 372 185 483
3 372 189 484
3 189 372 483
3 189 213 484
3 213 185 482
3 197 216 485
3 373 197 485
3 485 216 373
3 197 373 486
3 486 200 197
3 373 216 487
3 487 200 373
3 373 200 486
3 216 200 487
3 332 349 350
3 241 242 243
3 446 188 207
3 207 203 446
3 203 188 446
3 374 215 490
3 178 374 489
3 178 215 488
3 490 180 374
3 374 178 488
3 488 215 374
3 489 180 178
3 374 180 489
3 215 180 490
3 186 173 172
3 447 206 189
3 202 206 447
3 189 202 447
3 491 213 375
3 375 179 492
3 375 181 491
3 213 179 493
3 492 179 181
3 493 179 375
3 375 213 493
3 181 375 492
3 181 213 491
3 187 174 175
3 228 214 229
3 376 215 494
3 496 215 376
3 376 182 496
3 494 184 376
3 376 184 495
3 495 184 182
3 182 376 495
3 215 184 494
3 182 215 496
3 225 227 212
3 497 213 377
3 377 213 499
3 377 185 497
3 499 183 377
3 377 183 498
3 498 183 185
3 185 377 498
3 185 213 497
3 213 183 499
3 251 253 268
3 249 267 240
3 230 244 233
3 215 378 500
3 378 188 500
3 500 188 215
3 502 188 378
3 378 215 501
3 501 211 378
3 378 211 502
3 215 211 501
3 211 188 502
3 286 285 284
3 286 287 285
3 310 308 318
3 379 189 504
3 189 379 503
3 504 210 379
3 379 213 503
3 505 213 379
3 210 213 505
3 379 210 505
3 503 213 189
3 189 210 504
3 217 201 506
3 508 201 219
3 507 217 380
3 219 217 507
3 380 217 506
3 380 219 507
3 219 380 508
3 506 201 380
3 380 201 508
3 226 209 448
3 448 209 214
3 214 226 448
3 157 135 132
3 157 160 135
3 158 131 133
3 158 156 131
3 153 130 128
3 153 155 130
3 154 127 129
3 154 152 127
3 169 142 144
3 169 167 142
3 168 145 143
3 168 170 145
3 163 136 138
3 163 161 136
3 162 139 137
3 162 164 139
3 148 122 123
3 148 147 122
3 147 124 122
3 147 149 124
3 150 123 125
3 150 148 123
3 149 126 124
3 149 151 126
3 170 146 145
3 170 171 146
3 171 144 146
3 171 169 144
3 166 143 141
3 166 168 143
3 151 128 126
3 151 153 128
3 167 140 142
3 167 165 140
3 152 125 127
3 152 150 125
3 164 141 139
3 164 166 141
3 165 138 140
3 165 163 138
3 160 137 135
3 160 162 137
3 161 133 136
3 161 158 133
3 156 129 131
3 156 154 129
3 155 132 130
3 155 157 132
3 511 218 200
3 381 200 509
3 509 216 381
3 216 218 510
3 381 216 510
3 510 218 381
3 381 218 511
3 200 216 509
3 200 381 511
3 267 249 268
3 242 231 232
3 208 224 449
3 449 212 208
3 224 212 449
3 358 350 360
3 279 282 281
3 279 280 282
3 382 201 513
3 512 201 382
3 221 382 513
3 382 219 512
3 221 219 514
3 382 221 514
3 514 219 382
3 219 201 512
3 513 201 221
3 383 200 515
3 515 218 383
3 200 383 517
3 383 218 516
3 383 220 517
3 200 218 515
3 218 220 516
3 516 220 383
3 517 220 200
3 308 311 318
3 291 278 289
3 192 176 450
3 186 192 450
3 450 176 186
3 520 188 211
3 518 188 384
3 207 188 518
3 384 207 518
3 519 207 384
3 211 207 519
3 384 211 519
3 211 384 520
3 384 188 520
3 177 193 451
3 193 187 451
3 451 187 177
3 261 265 262
3 262 265 266
3 349 335 361
3 303 302 300
3 303 300 301
3 230 241 244
3 242 232 243
3 251 239 253
3 261 281 269
3 277 278 291
3 277 291 290
3 276 288 289
3 240 267 252
3 194 190 198
3 239 252 253
3 195 199 191
3 269 290 283
3 311 315 331
3 318 311 331
3 249 250 268
3 239 240 252
3 352 359 361
3 318 331 354
3 232 233 235
3 266 276 289
3 274 290 269
3 353 318 354
3 280 266 282
3 186 172 174
3 261 279 281
3 186 174 187
3 283 292 288
3 276 283 288
3 285 295 284
3 284 295 294
3 302 284 294
3 293 301 285
3 270 269 283
3 280 262 266
3 229 214 212
3 229 212 227
3 351 350 358
3 309 306 313
3 354 331 321
3 271 273 279
3 299 302 303
3 299 298 302
3 198 203 202
3 294 306 305
3 198 202 199
3 318 353 314
3 233 234 235
3 266 269 270
3 266 265 269
3 297 308 310
3 333 334 349
3 333 349 332
3 334 335 349
3 267 268 271
3 268 272 271
3 184 188 189
3 184 189 185
3 241 231 242
3 230 231 241
3 293 303 301
3 306 312 313
3 348 349 361
3 360 348 361
3 297 310 306
3 180 182 183
3 180 183 181
3 255 267 271
3 266 289 282
3 243 232 235
3 207 211 210
3 215 217 216
3 215 216 213
3 207 210 206
3 201 196 197
3 201 197 200
3 298 284 302
3 209 205 204
3 211 215 213
3 211 213 210
3 209 204 208
3 273 280 279
3 268 264 272
3 289 303 293
3 219 221 220
3 176 178 179
3 219 220 218
3 176 179 177
3 214 209 208
3 182 184 185
3 182 185 183
3 196 192 193
3 214 208 212
3 188 190 191
3 217 219 218
3 217 218 216
3 221 223 222
3 221 222 220
3 188 191 189
3 289 298 299
3 289 288 298
3 295 285 304
3 194 198 199
3 196 193 197
3 270 283 276
3 312 318 314
3 178 180 181
3 194 199 195
3 178 181 179
3 192 186 187
3 71 63 75
3 62 76 64
3 97 113 103
3 106 102 112
3 36 17 29
3 26 30 18
3 12 0 3
3 85 75 90
3 50 29 44
3 37 45 30
3 72 91 76
3 13 8 4
3 11 4 0
3 107 117 113
3 111 116 120
3 15 3 7
3 109 112 116
3 110 120 117
3 25 7 17
3 16 18 8
3 61 44 63
3 51 64 45
3 86 103 91
3 96 90 102
3 223 226 224
3 223 224 222
3 192 187 193
3 292 284 298
3 244 243 245
3 288 292 298
3 190 194 195
3 294 297 296
3 294 295 297
3 190 195 191
3 40 25 36
3 28 37 26
3 98 96 106
3 95 107 97
3 69 61 71
3 59 50 61
3 53 62 51
3 60 72 62
3 70 86 72
3 81 71 85
3 108 109 111
3 101 111 110
3 21 11 12
3 14 13 11
3 22 16 13
3 99 110 107
3 23 12 15
3 100 106 109
3 94 85 96
3 82 97 86
3 27 15 25
3 24 26 16
3 41 51 37
3 52 36 50
3 36 25 17
3 26 37 30
3 106 96 102
3 97 107 113
3 71 61 63
3 61 50 44
3 62 72 76
3 51 62 64
3 72 86 91
3 85 71 75
3 111 109 116
3 12 11 0
3 11 13 4
3 110 111 120
3 13 16 8
3 107 110 117
3 15 12 3
3 109 106 112
3 96 85 90
3 86 97 103
3 25 15 7
3 16 26 18
3 37 51 45
3 50 36 29
3 313 312 314
3 243 246 245
3 359 356 358
3 250 251 268
3 300 302 294
3 205 201 200
3 233 245 234
3 205 200 204
3 258 271 279
3 311 313 315
3 203 207 206
3 203 206 202
3 313 314 315
3 234 249 238
3 295 304 297
3 173 176 177
3 173 177 175
3 315 314 317
3 315 317 316
3 351 332 350
3 234 238 236
3 73 69 81
3 68 82 70
3 79 81 94
3 74 95 82
3 48 27 40
3 43 41 28
3 34 14 21
3 33 22 14
3 35 24 22
3 84 101 99
3 89 100 108
3 87 98 100
3 38 21 23
3 88 108 101
3 39 28 24
3 80 99 95
3 42 23 27
3 83 94 98
3 55 60 53
3 58 70 60
3 67 59 69
3 56 52 59
3 54 40 52
3 49 53 41
3 81 69 71
3 70 82 86
3 40 27 25
3 94 81 85
3 28 41 37
3 82 95 97
3 21 14 11
3 14 22 13
3 22 24 16
3 99 101 110
3 108 100 109
3 101 108 111
3 100 98 106
3 23 21 12
3 24 28 26
3 27 23 15
3 95 99 107
3 98 94 96
3 60 70 72
3 53 60 62
3 69 59 61
3 59 52 50
3 52 40 36
3 41 53 51
3 309 313 311
3 252 267 255
3 352 361 335
3 253 252 255
3 226 228 225
3 226 225 224
3 317 357 359
3 273 262 280
3 314 353 357
3 355 356 359
3 317 359 352
3 289 299 303
3 296 297 306
3 233 244 245
3 243 235 237
3 243 237 247
3 77 65 2
3 66 78 2
3 114 104 2
3 105 115 2
3 31 19 2
3 92 77 2
3 78 93 2
3 20 32 2
3 46 31 2
3 121 118 2
3 5 1 2
3 1 6 2
3 119 121 2
3 32 47 2
3 118 114 2
3 115 119 2
3 9 5 2
3 6 10 2
3 19 9 2
3 10 20 2
3 104 92 2
3 93 105 2
3 65 46 2
3 47 66 2
3 315 316 331
3 266 270 276
3 308 309 311
3 235 234 236
3 278 282 289
3 314 357 317
3 268 254 257
3 306 310 312
3 254 256 257
3 253 254 268
3 253 255 254
3 310 318 312
3 228 227 225
3 228 229 227
3 237 238 239
3 301 300 305
3 301 305 304
3 353 354 355
3 172 173 175
3 172 175 174
3 159 160 157
3 134 132 135
3 159 156 158
3 134 133 131
3 159 155 153
3 134 128 130
3 159 152 154
3 134 129 127
3 159 147 148
3 159 149 147
3 134 123 122
3 134 122 124
3 159 167 169
3 134 144 142
3 159 148 150
3 134 125 123
3 159 170 168
3 134 143 145
3 159 151 149
3 134 124 126
3 159 161 163
3 134 138 136
3 159 164 162
3 134 137 139
3 159 153 151
3 134 126 128
3 159 150 152
3 134 127 125
3 159 171 170
3 159 169 171
3 134 145 146
3 134 146 144
3 159 168 166
3 134 141 143
3 159 165 167
3 134 142 140
3 159 166 164
3 134 139 141
3 159 163 165
3 134 140 138
3 159 162 160
3 134 135 137
3 159 158 161
3 134 136 133
3 159 154 156
3 134 131 129
3 159 157 155
3 134 130 132
3 357 355 359
3 321 351 354
3 254 255 256
3 43 49 41
3 48 42 27
3 83 79 94
3 80 84 99
3 49 55 53
3 67 56 59
3 58 68 70
3 68 74 82
3 54 48 40
3 73 67 69
3 89 87 100
3 34 33 14
3 33 35 22
3 88 89 108
3 74 80 95
3 79 73 81
3 38 34 21
3 84 88 101
3 35 39 24
3 87 83 98
3 42 38 23
3 39 43 28
3 56 54 52
3 55 58 60
3 247 237 239
3 353 355 357
3 309 307 306
3 356 351 358
3 283 290 292
3 256 258 257
3 247 239 251
3 308 307 309
3 245 246 248
3 319 320 329
3 290 293 292
3 290 291 293
3 292 287 286
3 292 293 287
3 256 255 271
3 245 249 234
3 274 277 290
3 274 275 277
3 275 278 277
3 304 305 308
3 281 282 274
3 282 275 274
3 305 307 308
3 350 349 348
3 268 257 264
3 256 271 258
3 271 272 273
3 300 294 305
3 245 250 249
3 285 301 304
3 239 238 240
3 237 236 238
3 269 281 274
3 316 320 319
3 316 317 320
3 287 293 285
3 292 286 284
3 331 319 321
3 260 261 262
3 304 308 297
3 264 257 263
3 238 249 240
3 237 235 236
3 354 351 356
3 355 354 356
3 260 259 261
3 272 264 273
3 265 261 269
3 305 306 307
3 360 350 348
3 257 258 263
3 243 247 246
3 316 319 331
3 258 279 261
3 294 296 306
3 321 322 340
3 319 326 325
3 245 248 250
3 323 346 322
3 323 324 346
3 57 42 48
3 57 49 43
3 57 79 83
3 57 84 80
3 57 87 89
3 57 56 67
3 57 74 68
3 57 68 58
3 57 89 88
3 57 67 73
3 57 55 49
3 57 48 54
3 57 73 79
3 57 83 87
3 57 88 84
3 57 80 74
3 57 33 34
3 57 35 33
3 57 34 38
3 57 39 35
3 57 38 42
3 57 43 39
3 57 54 56
3 57 58 55
3 291 289 293
3 263 259 260
3 264 262 273
3 351 321 336
3 248 247 251
3 322 346 340
3 246 247 248
3 264 263 260
3 321 337 336
3 321 340 339
3 321 339 338
3 321 338 337
3 347 324 352
3 320 328 329
3 324 317 352
3 346 324 347
3 319 329 326
3 321 319 325
3 320 324 328
3 275 282 278
3 259 258 261
3 344 334 333
3 342 333 332
3 346 335 334
3 326 323 322
3 325 322 321
3 325 326 322
3 328 324 323
3 248 251 250
3 263 258 259
3 351 341 332
3 347 352 335
3 341 342 332
3 344 345 334
3 343 344 333
3 346 347 335
3 342 343 333
3 345 346 334
3 326 327 323
3 327 328 323
3 351 336 341
3 324 320 317
3 336 342 341
3 336 337 342
3 339 345 344
3 339 340 345
3 338 344 343
3 338 339 344
3 337 343 342
3 337 338 343
3 340 346 345
3 326 330 327
3 330 328 327
3 264 260 262
3 326 329 330
3 329 328 330
